<svg width="138" height="138" viewBox="0 0 138 138" fill="none" xmlns="http://www.w3.org/2000/svg">
<g id="calendar-xmark-regular 1">
<path id="Vector" d="M43.125 0C46.7098 0 49.5938 2.88398 49.5938 6.46875V17.25H88.4062V6.46875C88.4062 2.88398 91.2902 0 94.875 0C98.4598 0 101.344 2.88398 101.344 6.46875V17.25H112.125C121.639 17.25 129.375 24.9855 129.375 34.5V38.8125V51.75V120.75C129.375 130.264 121.639 138 112.125 138H25.875C16.3605 138 8.625 130.264 8.625 120.75V51.75V38.8125V34.5C8.625 24.9855 16.3605 17.25 25.875 17.25H36.6562V6.46875C36.6562 2.88398 39.5402 0 43.125 0ZM116.438 51.75H21.5625V120.75C21.5625 123.122 23.5031 125.062 25.875 125.062H112.125C114.497 125.062 116.438 123.122 116.438 120.75V51.75ZM90.832 75.7383L78.1641 88.4062L90.832 101.074C93.3656 103.608 93.3656 107.705 90.832 110.211C88.2984 112.718 84.2016 112.745 81.6949 110.211L69.027 97.5434L56.359 110.211C53.8254 112.745 49.7285 112.745 47.2219 110.211C44.7152 107.678 44.6883 103.581 47.2219 101.074L59.8898 88.4062L47.2219 75.7383C44.6883 73.2047 44.6883 69.1078 47.2219 66.6012C49.7555 64.0945 53.8523 64.0676 56.359 66.6012L69.027 79.2691L81.6949 66.6012C84.2285 64.0676 88.3254 64.0676 90.832 66.6012C93.3387 69.1348 93.3656 73.2316 90.832 75.7383Z" fill="#333235"/>
</g>
</svg>
