<svg width="128" height="146" viewBox="0 0 128 146" fill="none" xmlns="http://www.w3.org/2000/svg">
<g id="calendar-check-regular 1" clip-path="url(#clip0_6_85)">
<path id="Vector" d="M36.5714 0C40.3714 0 43.4286 3.05117 43.4286 6.84375V18.25H84.5714V6.84375C84.5714 3.05117 87.6286 0 91.4286 0C95.2286 0 98.2857 3.05117 98.2857 6.84375V18.25H109.714C119.8 18.25 128 26.434 128 36.5V41.0625V54.75V127.75C128 137.816 119.8 146 109.714 146H18.2857C8.2 146 0 137.816 0 127.75V54.75V41.0625V36.5C0 26.434 8.2 18.25 18.2857 18.25H29.7143V6.84375C29.7143 3.05117 32.7714 0 36.5714 0ZM114.286 54.75H13.7143V127.75C13.7143 130.259 15.7714 132.312 18.2857 132.312H109.714C112.229 132.312 114.286 130.259 114.286 127.75V54.75ZM94 84.6914L62 116.629C59.3143 119.309 54.9714 119.309 52.3143 116.629L34.0286 98.3789C31.3429 95.6984 31.3429 91.3641 34.0286 88.7121C36.7143 86.0602 41.0571 86.0316 43.7143 88.7121L57.1429 102.114L84.2857 75.0246C86.9714 72.3441 91.3143 72.3441 93.9714 75.0246C96.6286 77.7051 96.6571 82.0395 93.9714 84.6914H94Z" fill="#333235"/>
</g>
<defs>
<clipPath id="clip0_6_85">
<rect width="128" height="146" fill="white"/>
</clipPath>
</defs>
</svg>
